<svg width="162" height="94" viewBox="0 0 162 94" fill="none" xmlns="http://www.w3.org/2000/svg">
<path d="M3.99452 9.76361C2.91107 10.4522 2.00113 11.3767 1.33024 12.4714C-1.07186 16.4364 0.466565 21.1983 0.697906 21.8791C0.697906 21.8791 4.249 36.6793 15.2069 34.9617C17.821 34.0372 19.4211 32.5866 20.3465 30.9155C23.3809 25.4148 19.4366 18.1501 19.1551 17.6627C18.8736 17.1753 18.6153 16.7768 18.4457 16.5293C17.9213 15.7556 12.7122 8.24336 6.46602 9.00155C5.6062 9.11373 4.76952 9.36904 3.99452 9.76361Z" fill="#33655B"/>
<path d="M15.6849 36.0217C16.5177 38.5825 20.2539 50.3615 19.3786 57.2974C19.1897 58.7712 18.8774 60.6705 18.8774 60.6705C18.5612 62.6047 18.2489 64.152 18.0291 65.1926L30.618 68.5348C31.0614 63.6607 32.0793 46.3849 21.4568 34.4163C19.8529 32.6021 18.0407 30.9852 16.0589 29.5964L14.5166 32.5557C14.7981 33.399 15.2183 34.5866 15.6849 36.0217Z" fill="#33655B"/>
<path d="M21.2294 67.7263C20.7552 70.0164 20.2771 72.3064 19.799 74.5926L32.4109 78.2365C32.4957 78.0624 33.2129 76.5074 32.5189 75.2811C32.2683 74.8711 31.9135 74.5384 31.4933 74.3102C30.618 73.7802 30.1168 74.0084 29.1798 73.6874C28.4203 73.4127 27.7455 72.9524 27.2096 72.3489C26.3883 71.4283 25.864 70.2755 25.7059 69.0493L21.2294 67.7263Z" fill="#33655B"/>
<path d="M48.4854 4.25514C43.9472 8.09249 38.8886 9.13694 36.1472 9.67076C34.3967 10.0112 32.7927 10.1543 29.5925 10.4444C27.9076 10.5953 25.8987 10.7771 23.4234 10.8313C20.4622 10.8931 17.501 10.7616 14.5553 10.4444C19.7142 13.6126 23.0185 19.0901 23.4234 25.144C27.842 24.3703 32.1295 22.9816 36.1664 21.0204C36.1664 21.0204 47.348 15.5545 52.6495 7.15636C53.5132 5.79085 54.1918 4.37505 54.1918 4.37505C54.6468 3.4544 55.0516 2.51053 55.4063 1.54732C54.3769 1.03284 53.3513 0.514485 52.3218 0C51.2345 1.58214 49.9428 3.00954 48.4854 4.25514Z" fill="#33655B"/>
<path d="M42.7018 34.0411C42.2083 34.4588 41.6955 34.8457 41.1595 35.2015C40.4269 35.6619 39.6519 36.0526 38.8461 36.362C37.9593 36.6676 37.0609 36.9268 36.1471 37.1357C34.4853 37.5728 33.6448 37.7972 33.0626 37.9094C31.6745 38.1763 30.6103 38.273 30.3636 38.2962C28.9524 38.4161 27.5335 38.4161 26.1223 38.2962C28.0694 40.8338 29.5076 43.7234 30.3636 46.8065C31.9059 46.2842 33.5137 45.646 35.1986 44.9071C36.1934 44.4623 37.1265 44.0058 38.0287 43.5455C38.0287 43.5455 43.9433 40.2381 46.5652 35.5149C46.9932 34.7412 47.3363 33.9676 47.3363 33.9676C47.5561 33.4531 47.7489 32.927 47.9108 32.3932L45.4085 31.3448C44.5911 32.3274 43.685 33.2287 42.7018 34.0411Z" fill="#33655B"/>
<path d="M40.4231 62.6433C40.4231 57.5759 41.8304 53.6302 44.6451 50.8025C47.4597 47.9747 51.381 46.5628 56.4049 46.5667C61.5446 46.5667 65.5159 47.9554 68.3113 50.729C71.1067 53.5025 72.5063 57.3902 72.5102 62.388C72.5102 66.0204 71.901 68.9951 70.6826 71.3161C69.495 73.6061 67.6597 75.49 65.4041 76.7317C63.0907 78.0199 60.2221 78.6659 56.8021 78.6659C53.3088 78.6659 50.4209 78.1088 48.1345 76.9947C45.7941 75.8265 43.8547 73.9813 42.5707 71.699C41.1403 69.2891 40.4231 66.2718 40.4231 62.6433ZM49.9891 62.6859C49.9891 65.8192 50.5674 68.0706 51.728 69.4438C52.8885 70.8171 54.4694 71.5018 56.4705 71.4979C58.5256 71.4979 60.118 70.8287 61.24 69.4864C62.362 68.1441 62.9249 65.738 62.9288 62.2642C62.9288 59.3398 62.3427 57.2045 61.1667 55.8545C59.9907 54.5044 58.3983 53.8313 56.3857 53.8313C54.6043 53.7656 52.8924 54.5238 51.7396 55.8854C50.5713 57.2548 49.9852 59.5216 49.9891 62.6859Z" fill="#33655B"/>
<path d="M76.1421 65.0146C76.1421 60.7208 77.3335 57.3786 79.7163 54.9841C82.0991 52.5896 85.4189 51.3943 89.6794 51.3943C94.0479 51.3943 97.4101 52.5703 99.7659 54.9183C102.122 57.2664 103.302 60.5622 103.309 64.798C103.309 67.8733 102.796 70.3954 101.767 72.3605C100.761 74.3024 99.2068 75.9 97.2944 76.9561C95.3434 78.0508 92.9143 78.6001 90.0072 78.5962C87.0498 78.5962 84.6015 78.1243 82.6621 77.1804C80.6802 76.1901 79.0377 74.6273 77.9504 72.6932C76.7436 70.6468 76.1421 68.0899 76.1421 65.0146ZM84.239 65.0494C84.239 67.7069 84.7326 69.6179 85.7158 70.7745C86.7183 71.9389 88.195 72.581 89.7295 72.5152C91.4723 72.5152 92.818 71.9466 93.7703 70.8093C94.7227 69.672 95.1969 67.6334 95.2008 64.6897C95.2008 62.2139 94.7034 60.4074 93.7086 59.274C92.6869 58.1213 91.1986 57.4907 89.6601 57.5604C88.1526 57.5062 86.699 58.1445 85.7235 59.3011C84.7326 60.4539 84.239 62.3687 84.2429 65.0494H84.239Z" fill="#33655B"/>
<path d="M107.639 51.4369C109.598 51.491 111.599 51.5181 113.646 51.522C115.767 51.522 117.838 51.4949 119.862 51.4369C121.859 51.3286 123.852 51.669 125.699 52.4349C127.138 53.0577 128.402 54.0287 129.378 55.2588C130.365 56.5276 131.082 57.9859 131.483 59.541C131.93 61.2276 132.154 62.9683 132.146 64.7168C132.146 67.5716 131.822 69.792 131.174 71.3741C130.577 72.875 129.655 74.2251 128.475 75.3275C127.434 76.3294 126.162 77.0605 124.77 77.4512C123.174 77.9077 121.528 78.1514 119.866 78.1785H107.632V51.4369H107.639ZM115.867 57.4869V72.0859H117.884C119.604 72.0859 120.826 71.8925 121.554 71.5095C122.337 71.0647 122.943 70.3568 123.263 69.5135C123.675 68.5619 123.879 67.0146 123.879 64.8754C123.879 62.0438 123.421 60.1058 122.499 59.0613C121.578 58.0169 120.055 57.4947 117.922 57.4947L115.867 57.4869Z" fill="#33655B"/>
<path d="M132.829 51.4175C135.794 52.431 139.009 52.431 141.974 51.4175C142.911 54.8603 144.766 57.9781 147.345 60.4345C150.06 58.0903 151.945 54.926 152.724 51.4175C155.674 52.4194 158.87 52.4194 161.823 51.4175L151.459 66.9526V78.1475H143.212V66.9526L132.829 51.4175Z" fill="#33655B"/>
<path d="M55.8419 84.2091C56.4897 84.6888 57.1259 85.1491 57.7698 85.5862C58.4137 86.0233 59.073 86.445 59.7362 86.8357C61.0317 87.6248 62.385 88.3211 63.7769 88.9207C65.138 89.5009 66.5415 89.9729 67.9758 90.3249C68.3305 90.4061 68.6891 90.4642 69.0438 90.5415L69.5797 90.646L70.1195 90.7079C70.4781 90.7465 70.8367 90.8123 71.1953 90.8394L72.2787 90.8819C75.2399 90.9322 78.1895 90.5067 81.0157 89.6247C83.9653 88.7234 86.7761 87.4237 89.3749 85.7564C87.4586 88.4217 84.8714 90.5377 81.8833 91.8838C80.3834 92.584 78.8141 93.1256 77.1986 93.493C73.8981 94.2667 70.4511 94.1507 67.2085 93.1604C64.043 92.1546 61.1628 90.3984 58.8147 88.0387C57.6541 86.9014 56.6555 85.6133 55.8419 84.2091Z" fill="#33655B"/>
</svg>
