<svg id="Layer_1" data-name="Layer 1" xmlns="http://www.w3.org/2000/svg" viewBox="0 0 224.05 202.42"><defs><style>.cls-1{fill:#34665a;}</style></defs><path class="cls-1" d="M533,310.32c-.87,1.49-1.5,3.22-2.67,4.42a8.06,8.06,0,0,1-9.06,2,8.42,8.42,0,0,1-5.72-7.59c-.12-1.23,0-2.48,0-3.72q0-26.49,0-53c0-8.76-4.8-15.29-12.93-17.61a21.72,21.72,0,0,0-5.39-.7c-3.79-.11-7.58,0-11.38,0-12.67,0-22.16-6.84-26.29-18.84-.73-2.14-1.43-4.29-2.2-6.41a8.9,8.9,0,0,0-8.78-6.27q-27.36,0-54.7,0c-4.72,0-7.54,2.08-9.3,6.53-1.58,4-2.78,8.21-4.91,11.89-5,8.63-12.84,12.84-22.77,13.09-4.09.1-8.17,0-12.26,0-10.55.12-18.08,7.55-18.1,18.11q-.08,49.82,0,99.63c0,10.44,7.54,18,18,18q76.47.09,152.93,0a17.75,17.75,0,0,0,18.14-17.69,8.31,8.31,0,0,1,5.54-7.94,8,8,0,0,1,9.1,1.79c1.24,1.23,1.9,3,2.83,4.57v5.69a4.77,4.77,0,0,0-.39,1c-2.81,17.67-17,30.07-34.88,30.09q-76.78.11-153.58-.06a36.65,36.65,0,0,1-11.56-1.94C318,380.41,309,367.3,309,351.54q0-48.72,0-97.44c0-1.46,0-2.93.07-4.38.73-16.43,13.69-30.72,30-32.63,5.69-.67,11.49-.37,17.25-.49,4.61-.1,7.5-2.06,9.17-6.39.92-2.37,1.72-4.8,2.62-7.18,4.18-11.1,13.36-17.84,25-17.93q27.89-.19,55.78,0c9.84.09,17.63,4.41,22.57,13,2,3.5,3.19,7.49,4.59,11.31,1.87,5.14,4.62,7.16,10.13,7.17,4.3,0,8.61-.17,12.91.06,13.83.75,24.06,7.35,30.3,19.69,1.77,3.5,2.46,7.55,3.65,11.34Z" transform="translate(-308.95 -185)"/><path class="cls-1" d="M421.93,242.89c30.33.53,54.69,25.37,54.17,55.24-.53,30.36-25.35,54.74-55.2,54.22-30.32-.53-54.68-25.37-54.17-55.25C367.26,266.75,392.08,242.37,421.93,242.89Zm36.67,54.75a37.19,37.19,0,1,0-37.15,37.2A37.32,37.32,0,0,0,458.6,297.64Z" transform="translate(-308.95 -185)"/></svg>