<svg id="Layer_1" data-name="Layer 1" xmlns="http://www.w3.org/2000/svg" viewBox="0 0 121.22 108.07"><defs><style>.cls-1{fill:#35675a;}</style></defs><path class="cls-1" d="M360,308.31a19.89,19.89,0,0,1,2.25-2.33q27.9-20.48,55.83-40.89c2.07-1.51,3-1.51,5.1,0l56.21,41.15c2.31,1.69,2.45,4.37.29,5.64-1.42.83-2.69.44-3.94-.47q-9.37-6.92-18.79-13.78-17.7-13-35.39-25.95a1.34,1.34,0,0,0-1.92,0q-26.94,19.77-53.91,39.5c-2.52,1.84-4.29,1.45-5.73-1.26Z" transform="translate(-360.04 -263.96)"/><path class="cls-1" d="M379.7,365.76H381c7.5,0,15,0,22.49,0,1.08,0,1.4-.28,1.39-1.38q-.06-12.84,0-25.68a15.71,15.71,0,0,1,31.37-1.56c.29,4.84.11,9.71.12,14.56q0,6.45,0,12.9c0,.73.08,1.15,1,1.15,7.81,0,15.63,0,23.44,0a5.44,5.44,0,0,0,.77-.11V316.16c0-2.3,1.26-3.71,3.24-3.67a3,3,0,0,1,3,2.56,9.75,9.75,0,0,1,.09,1.53q0,25.68,0,51.37c0,.31,0,.63,0,.94a3.1,3.1,0,0,1-3.31,3.13H433.45c-2.15,0-3.34-1.29-3.34-3.56,0-9.94,0-19.88,0-29.83a9.45,9.45,0,1,0-18.9-.14c0,9.71,0,19.41,0,29.12,0,.35,0,.71,0,1.07a3.11,3.11,0,0,1-3.32,3.34H376.74a3.09,3.09,0,0,1-3.32-3.1c0-.4,0-.79,0-1.19q0-25.5,0-51a11.12,11.12,0,0,1,.07-1.53,3,3,0,0,1,3.21-2.69,3.08,3.08,0,0,1,3,2.92c0,.44,0,.87,0,1.31v49Z" transform="translate(-360.04 -263.96)"/></svg>