<?xml version="1.0" encoding="utf-8"?>
<svg viewBox="138.44 52.159 55.406 78.237" width="55.406" height="78.237" xmlns="http://www.w3.org/2000/svg">
  <path d="M 142.434 61.923 C 141.351 62.611 140.441 63.536 139.77 64.631 C 137.368 68.596 138.906 73.358 139.137 74.038 C 139.137 74.038 142.688 88.839 153.646 87.121 C 156.26 86.196 157.861 84.746 158.786 83.075 C 161.82 77.574 157.876 70.309 157.595 69.822 C 157.313 69.335 157.055 68.936 156.885 68.689 C 156.361 67.915 151.152 60.403 144.905 61.161 C 144.046 61.273 143.209 61.528 142.434 61.923 Z" fill="#33655B"/>
  <path d="M 154.124 88.181 C 154.957 90.742 158.693 102.521 157.818 109.457 C 157.629 110.93 157.317 112.83 157.317 112.83 C 157.001 114.764 156.688 116.311 156.469 117.352 L 169.057 120.694 C 169.501 115.82 170.519 98.544 159.896 86.576 C 158.292 84.761 156.48 83.144 154.498 81.756 L 152.956 84.715 C 153.238 85.558 153.658 86.746 154.124 88.181 Z" fill="#33655B"/>
  <path d="M 159.669 119.886 C 159.195 122.176 158.717 124.466 158.238 126.752 L 170.85 130.396 C 170.935 130.222 171.652 128.667 170.958 127.44 C 170.708 127.03 170.353 126.698 169.933 126.469 C 169.057 125.939 168.556 126.168 167.619 125.847 C 166.86 125.572 166.185 125.112 165.649 124.508 C 164.828 123.588 164.303 122.435 164.145 121.209 L 159.669 119.886 Z" fill="#33655B"/>
  <path d="M 186.925 56.414 C 182.387 60.252 177.328 61.296 174.587 61.83 C 172.836 62.17 171.232 62.314 168.032 62.604 C 166.347 62.755 164.338 62.936 161.863 62.991 C 158.902 63.052 155.94 62.921 152.995 62.604 C 158.154 65.772 161.458 71.249 161.863 77.303 C 166.281 76.53 170.569 75.141 174.606 73.18 C 174.606 73.18 185.787 67.714 191.089 59.316 C 191.953 57.95 192.631 56.534 192.631 56.534 C 193.086 55.614 193.491 54.67 193.846 53.707 C 192.816 53.192 191.791 52.674 190.761 52.159 C 189.674 53.741 188.382 55.169 186.925 56.414 Z" fill="#33655B"/>
  <path d="M 181.141 86.2 C 180.648 86.618 180.135 87.005 179.599 87.361 C 178.866 87.821 178.091 88.212 177.286 88.521 C 176.399 88.827 175.5 89.086 174.587 89.295 C 172.925 89.732 172.084 89.956 171.502 90.069 C 170.114 90.336 169.05 90.432 168.803 90.455 C 167.392 90.575 165.973 90.575 164.562 90.455 C 166.509 92.993 167.947 95.883 168.803 98.966 C 170.345 98.443 171.953 97.805 173.638 97.066 C 174.633 96.622 175.566 96.165 176.468 95.705 C 176.468 95.705 182.383 92.397 185.005 87.674 C 185.433 86.9 185.776 86.127 185.776 86.127 C 185.996 85.612 186.188 85.086 186.35 84.552 L 183.848 83.504 C 183.031 84.487 182.124 85.388 181.141 86.2 Z" fill="#33655B"/>
</svg>